<?xml version="1.0" encoding="UTF-8"?> <svg xmlns="http://www.w3.org/2000/svg" width="80" height="42" viewBox="0 0 80 42" fill="none"><g clip-path="url(#clip0_3152_14729)"><mask id="path-1-outside-1_3152_14729" maskUnits="userSpaceOnUse" x="-1" y="0" width="81" height="42" fill="black"><rect fill="white" x="-1" width="81" height="42"></rect><path d="M7.01119 19.5533C5.78295 19.5533 4.67413 19.2745 3.68471 18.7169C2.71236 18.1593 1.93618 17.3905 1.35618 16.4104C0.793237 15.4135 0.511766 14.2644 0.511766 12.9633C0.511766 11.6622 0.801766 10.5217 1.38177 9.54163C1.96177 8.54468 2.73795 7.7674 3.7103 7.20979C4.69971 6.65217 5.80854 6.37337 7.03678 6.37337C8.24796 6.37337 9.33972 6.65217 10.3121 7.20979C11.3015 7.7674 12.0777 8.54468 12.6406 9.54163C13.2206 10.5217 13.5106 11.6622 13.5106 12.9633C13.5106 14.2644 13.2206 15.4135 12.6406 16.4104C12.0777 17.3905 11.3015 18.1593 10.3121 18.7169C9.32266 19.2745 8.22237 19.5533 7.01119 19.5533ZM7.01119 16.7399C7.86413 16.7399 8.60619 16.4273 9.23737 15.8021C9.86855 15.16 10.1841 14.2138 10.1841 12.9633C10.1841 11.7129 9.86855 10.7751 9.23737 10.1499C8.60619 9.50783 7.87266 9.18678 7.03678 9.18678C6.16678 9.18678 5.41619 9.50783 4.78501 10.1499C4.17089 10.7751 3.86383 11.7129 3.86383 12.9633C3.86383 14.2138 4.17089 15.16 4.78501 15.8021C5.41619 16.4273 6.15825 16.7399 7.01119 16.7399Z"></path><path d="M15.1597 19.2492V1H18.435V8.60382C18.8614 7.91103 19.4329 7.37031 20.1494 6.98167C20.8829 6.57614 21.7188 6.37337 22.657 6.37337C24.2264 6.37337 25.4376 6.86339 26.2906 7.84344C27.1606 8.82349 27.5956 10.2598 27.5956 12.1523V19.2492H24.3458V12.4564C24.3458 11.375 24.1241 10.547 23.6806 9.97251C23.2541 9.398 22.5717 9.11074 21.6335 9.11074C20.7123 9.11074 19.9447 9.43179 19.3305 10.0739C18.7335 10.716 18.435 11.6116 18.435 12.7606V19.2492H15.1597Z"></path><path d="M31.2137 4.72587C30.6166 4.72587 30.1219 4.54845 29.7296 4.1936C29.3543 3.83876 29.1666 3.39098 29.1666 2.85026C29.1666 2.30955 29.3543 1.87021 29.7296 1.53227C30.1219 1.17742 30.6166 1 31.2137 1C31.8108 1 32.2969 1.17742 32.6722 1.53227C33.0646 1.87021 33.2608 2.30955 33.2608 2.85026C33.2608 3.39098 33.0646 3.83876 32.6722 4.1936C32.2969 4.54845 31.8108 4.72587 31.2137 4.72587ZM29.5761 19.2492V6.67752H32.8513V19.2492H29.5761Z"></path><path d="M41.0806 19.5533C39.8523 19.5533 38.7435 19.2745 37.7541 18.7169C36.7817 18.1593 36.0056 17.3905 35.4256 16.4104C34.8626 15.4135 34.5812 14.2644 34.5812 12.9633C34.5812 11.6622 34.8712 10.5217 35.4512 9.54163C36.0312 8.54468 36.8073 7.7674 37.7797 7.20979C38.7691 6.65217 39.8779 6.37337 41.1062 6.37337C42.3173 6.37337 43.4091 6.65217 44.3815 7.20979C45.3709 7.7674 46.1471 8.54468 46.71 9.54163C47.29 10.5217 47.58 11.6622 47.58 12.9633C47.58 14.2644 47.29 15.4135 46.71 16.4104C46.1471 17.3905 45.3709 18.1593 44.3815 18.7169C43.3921 19.2745 42.2918 19.5533 41.0806 19.5533ZM41.0806 16.7399C41.9335 16.7399 42.6756 16.4273 43.3068 15.8021C43.9379 15.16 44.2535 14.2138 44.2535 12.9633C44.2535 11.7129 43.9379 10.7751 43.3068 10.1499C42.6756 9.50783 41.942 9.18678 41.1062 9.18678C40.2362 9.18678 39.4856 9.50783 38.8544 10.1499C38.2403 10.7751 37.9332 11.7129 37.9332 12.9633C37.9332 14.2138 38.2403 15.16 38.8544 15.8021C39.4856 16.4273 40.2276 16.7399 41.0806 16.7399Z"></path><path d="M6.57619 40.6958C5.2456 40.6958 4.17942 40.3748 3.37765 39.7327C2.57589 39.0906 2.175 37.95 2.175 36.311V30.8362H0V28.1242H2.175L2.55883 24.7532H5.4503V28.1242H8.87913V30.8362H5.4503V36.3363C5.4503 36.9446 5.57824 37.3671 5.83413 37.6036C6.10707 37.8233 6.56766 37.9331 7.21589 37.9331H8.80237V40.6958H6.57619Z"></path><path d="M10.4118 40.6958V22.4467H13.6871V30.0505C14.1136 29.3577 14.6851 28.817 15.4015 28.4283C16.1351 28.0228 16.971 27.82 17.9092 27.82C19.4786 27.82 20.6898 28.3101 21.5427 29.2901C22.4127 30.2702 22.8477 31.7064 22.8477 33.5989V40.6958H19.598V33.9031C19.598 32.8217 19.3763 31.9937 18.9327 31.4192C18.5063 30.8447 17.8239 30.5574 16.8857 30.5574C15.9645 30.5574 15.1968 30.8785 14.5827 31.5206C13.9857 32.1627 13.6871 33.0582 13.6871 34.2073V40.6958H10.4118Z"></path><path d="M30.8671 41C29.5876 41 28.4532 40.7296 27.4638 40.1889C26.4744 39.6482 25.6982 38.8878 25.1353 37.9078C24.5723 36.9277 24.2909 35.7956 24.2909 34.5114C24.2909 33.2103 24.5638 32.0528 25.1097 31.039C25.6726 30.0251 26.4403 29.2394 27.4126 28.6818C28.4021 28.1073 29.5621 27.82 30.8926 27.82C32.1379 27.82 33.2382 28.0904 34.1935 28.6311C35.1488 29.1718 35.8909 29.9153 36.4197 30.8616C36.9656 31.7909 37.2385 32.8301 37.2385 33.9791C37.2385 34.165 37.23 34.3593 37.213 34.5621C37.213 34.7649 37.2044 34.9761 37.1874 35.1958H27.5406C27.6088 36.1758 27.95 36.9446 28.5641 37.5022C29.1953 38.0599 29.9544 38.3387 30.8415 38.3387C31.5068 38.3387 32.0612 38.195 32.5047 37.9078C32.9653 37.6036 33.3065 37.215 33.5282 36.7419H36.8547C36.6159 37.536 36.215 38.2626 35.6521 38.9216C35.1062 39.5637 34.4238 40.0706 33.605 40.4424C32.8032 40.8141 31.8906 41 30.8671 41ZM30.8926 30.456C30.0909 30.456 29.3829 30.6841 28.7688 31.1404C28.1547 31.5797 27.7623 32.2556 27.5918 33.1681H33.9121C33.8609 32.3401 33.5538 31.6811 32.9909 31.1911C32.4279 30.701 31.7285 30.456 30.8926 30.456Z"></path><path d="M38.7139 40.6958V28.1242H41.6053L41.8868 29.8224C42.2962 29.2141 42.8336 28.7325 43.4989 28.3777C44.1812 28.0059 44.9659 27.82 45.853 27.82C47.8148 27.82 49.2051 28.572 50.0239 30.0758C50.4845 29.3831 51.0986 28.8339 51.8662 28.4283C52.6509 28.0228 53.5039 27.82 54.4251 27.82C56.0798 27.82 57.3507 28.3101 58.2377 29.2901C59.1248 30.2702 59.5683 31.7064 59.5683 33.5989V40.6958H56.293V33.9031C56.293 32.8217 56.0798 31.9937 55.6533 31.4192C55.2439 30.8447 54.6042 30.5574 53.7342 30.5574C52.8471 30.5574 52.1307 30.8785 51.5848 31.5206C51.0559 32.1627 50.7915 33.0582 50.7915 34.2073V40.6958H47.5162V33.9031C47.5162 32.8217 47.303 31.9937 46.8765 31.4192C46.4501 30.8447 45.7933 30.5574 44.9062 30.5574C44.0362 30.5574 43.3283 30.8785 42.7824 31.5206C42.2536 32.1627 41.9892 33.0582 41.9892 34.2073V40.6958H38.7139Z"></path><path d="M67.5652 41C66.2858 41 65.1514 40.7296 64.162 40.1889C63.1726 39.6482 62.3964 38.8878 61.8335 37.9078C61.2705 36.9277 60.9891 35.7956 60.9891 34.5114C60.9891 33.2103 61.262 32.0528 61.8079 31.039C62.3708 30.0251 63.1385 29.2394 64.1108 28.6818C65.1002 28.1073 66.2602 27.82 67.5908 27.82C68.8361 27.82 69.9364 28.0904 70.8917 28.6311C71.847 29.1718 72.5891 29.9153 73.1179 30.8616C73.6638 31.7909 73.9367 32.8301 73.9367 33.9791C73.9367 34.165 73.9282 34.3593 73.9111 34.5621C73.9111 34.7649 73.9026 34.9761 73.8856 35.1958H64.2388C64.307 36.1758 64.6482 36.9446 65.2623 37.5022C65.8935 38.0599 66.6526 38.3387 67.5397 38.3387C68.205 38.3387 68.7594 38.195 69.2029 37.9078C69.6635 37.6036 70.0047 37.215 70.2264 36.7419H73.5529C73.3141 37.536 72.9132 38.2626 72.3503 38.9216C71.8044 39.5637 71.122 40.0706 70.3032 40.4424C69.5014 40.8141 68.5888 41 67.5652 41ZM67.5908 30.456C66.7891 30.456 66.0811 30.6841 65.467 31.1404C64.8529 31.5797 64.4605 32.2556 64.29 33.1681H70.6103C70.5591 32.3401 70.252 31.6811 69.6891 31.1911C69.1261 30.701 68.4267 30.456 67.5908 30.456Z"></path><path d="M76.8194 40.8733C76.2224 40.8733 75.7276 40.6874 75.3353 40.3157C74.96 39.9439 74.7723 39.4961 74.7723 38.9723C74.7723 38.4316 74.96 37.9754 75.3353 37.6036C75.7276 37.2319 76.2224 37.046 76.8194 37.046C77.4165 37.046 77.9026 37.2319 78.2779 37.6036C78.6703 37.9754 78.8665 38.4316 78.8665 38.9723C78.8665 39.4961 78.6703 39.9439 78.2779 40.3157C77.9026 40.6874 77.4165 40.8733 76.8194 40.8733Z"></path></mask><path d="M7.01119 19.5533C5.78295 19.5533 4.67413 19.2745 3.68471 18.7169C2.71236 18.1593 1.93618 17.3905 1.35618 16.4104C0.793237 15.4135 0.511766 14.2644 0.511766 12.9633C0.511766 11.6622 0.801766 10.5217 1.38177 9.54163C1.96177 8.54468 2.73795 7.7674 3.7103 7.20979C4.69971 6.65217 5.80854 6.37337 7.03678 6.37337C8.24796 6.37337 9.33972 6.65217 10.3121 7.20979C11.3015 7.7674 12.0777 8.54468 12.6406 9.54163C13.2206 10.5217 13.5106 11.6622 13.5106 12.9633C13.5106 14.2644 13.2206 15.4135 12.6406 16.4104C12.0777 17.3905 11.3015 18.1593 10.3121 18.7169C9.32266 19.2745 8.22237 19.5533 7.01119 19.5533ZM7.01119 16.7399C7.86413 16.7399 8.60619 16.4273 9.23737 15.8021C9.86855 15.16 10.1841 14.2138 10.1841 12.9633C10.1841 11.7129 9.86855 10.7751 9.23737 10.1499C8.60619 9.50783 7.87266 9.18678 7.03678 9.18678C6.16678 9.18678 5.41619 9.50783 4.78501 10.1499C4.17089 10.7751 3.86383 11.7129 3.86383 12.9633C3.86383 14.2138 4.17089 15.16 4.78501 15.8021C5.41619 16.4273 6.15825 16.7399 7.01119 16.7399Z" fill="url(#paint0_linear_3152_14729)"></path><path d="M15.1597 19.2492V1H18.435V8.60382C18.8614 7.91103 19.4329 7.37031 20.1494 6.98167C20.8829 6.57614 21.7188 6.37337 22.657 6.37337C24.2264 6.37337 25.4376 6.86339 26.2906 7.84344C27.1606 8.82349 27.5956 10.2598 27.5956 12.1523V19.2492H24.3458V12.4564C24.3458 11.375 24.1241 10.547 23.6806 9.97251C23.2541 9.398 22.5717 9.11074 21.6335 9.11074C20.7123 9.11074 19.9447 9.43179 19.3305 10.0739C18.7335 10.716 18.435 11.6116 18.435 12.7606V19.2492H15.1597Z" fill="url(#paint1_linear_3152_14729)"></path><path d="M31.2137 4.72587C30.6166 4.72587 30.1219 4.54845 29.7296 4.1936C29.3543 3.83876 29.1666 3.39098 29.1666 2.85026C29.1666 2.30955 29.3543 1.87021 29.7296 1.53227C30.1219 1.17742 30.6166 1 31.2137 1C31.8108 1 32.2969 1.17742 32.6722 1.53227C33.0646 1.87021 33.2608 2.30955 33.2608 2.85026C33.2608 3.39098 33.0646 3.83876 32.6722 4.1936C32.2969 4.54845 31.8108 4.72587 31.2137 4.72587ZM29.5761 19.2492V6.67752H32.8513V19.2492H29.5761Z" fill="url(#paint2_linear_3152_14729)"></path><path d="M41.0806 19.5533C39.8523 19.5533 38.7435 19.2745 37.7541 18.7169C36.7817 18.1593 36.0056 17.3905 35.4256 16.4104C34.8626 15.4135 34.5812 14.2644 34.5812 12.9633C34.5812 11.6622 34.8712 10.5217 35.4512 9.54163C36.0312 8.54468 36.8073 7.7674 37.7797 7.20979C38.7691 6.65217 39.8779 6.37337 41.1062 6.37337C42.3173 6.37337 43.4091 6.65217 44.3815 7.20979C45.3709 7.7674 46.1471 8.54468 46.71 9.54163C47.29 10.5217 47.58 11.6622 47.58 12.9633C47.58 14.2644 47.29 15.4135 46.71 16.4104C46.1471 17.3905 45.3709 18.1593 44.3815 18.7169C43.3921 19.2745 42.2918 19.5533 41.0806 19.5533ZM41.0806 16.7399C41.9335 16.7399 42.6756 16.4273 43.3068 15.8021C43.9379 15.16 44.2535 14.2138 44.2535 12.9633C44.2535 11.7129 43.9379 10.7751 43.3068 10.1499C42.6756 9.50783 41.942 9.18678 41.1062 9.18678C40.2362 9.18678 39.4856 9.50783 38.8544 10.1499C38.2403 10.7751 37.9332 11.7129 37.9332 12.9633C37.9332 14.2138 38.2403 15.16 38.8544 15.8021C39.4856 16.4273 40.2276 16.7399 41.0806 16.7399Z" fill="url(#paint3_linear_3152_14729)"></path><path d="M6.57619 40.6958C5.2456 40.6958 4.17942 40.3748 3.37765 39.7327C2.57589 39.0906 2.175 37.95 2.175 36.311V30.8362H0V28.1242H2.175L2.55883 24.7532H5.4503V28.1242H8.87913V30.8362H5.4503V36.3363C5.4503 36.9446 5.57824 37.3671 5.83413 37.6036C6.10707 37.8233 6.56766 37.9331 7.21589 37.9331H8.80237V40.6958H6.57619Z" fill="url(#paint4_linear_3152_14729)"></path><path d="M10.4118 40.6958V22.4467H13.6871V30.0505C14.1136 29.3577 14.6851 28.817 15.4015 28.4283C16.1351 28.0228 16.971 27.82 17.9092 27.82C19.4786 27.82 20.6898 28.3101 21.5427 29.2901C22.4127 30.2702 22.8477 31.7064 22.8477 33.5989V40.6958H19.598V33.9031C19.598 32.8217 19.3763 31.9937 18.9327 31.4192C18.5063 30.8447 17.8239 30.5574 16.8857 30.5574C15.9645 30.5574 15.1968 30.8785 14.5827 31.5206C13.9857 32.1627 13.6871 33.0582 13.6871 34.2073V40.6958H10.4118Z" fill="url(#paint5_linear_3152_14729)"></path><path d="M30.8671 41C29.5876 41 28.4532 40.7296 27.4638 40.1889C26.4744 39.6482 25.6982 38.8878 25.1353 37.9078C24.5723 36.9277 24.2909 35.7956 24.2909 34.5114C24.2909 33.2103 24.5638 32.0528 25.1097 31.039C25.6726 30.0251 26.4403 29.2394 27.4126 28.6818C28.4021 28.1073 29.5621 27.82 30.8926 27.82C32.1379 27.82 33.2382 28.0904 34.1935 28.6311C35.1488 29.1718 35.8909 29.9153 36.4197 30.8616C36.9656 31.7909 37.2385 32.8301 37.2385 33.9791C37.2385 34.165 37.23 34.3593 37.213 34.5621C37.213 34.7649 37.2044 34.9761 37.1874 35.1958H27.5406C27.6088 36.1758 27.95 36.9446 28.5641 37.5022C29.1953 38.0599 29.9544 38.3387 30.8415 38.3387C31.5068 38.3387 32.0612 38.195 32.5047 37.9078C32.9653 37.6036 33.3065 37.215 33.5282 36.7419H36.8547C36.6159 37.536 36.215 38.2626 35.6521 38.9216C35.1062 39.5637 34.4238 40.0706 33.605 40.4424C32.8032 40.8141 31.8906 41 30.8671 41ZM30.8926 30.456C30.0909 30.456 29.3829 30.6841 28.7688 31.1404C28.1547 31.5797 27.7623 32.2556 27.5918 33.1681H33.9121C33.8609 32.3401 33.5538 31.6811 32.9909 31.1911C32.4279 30.701 31.7285 30.456 30.8926 30.456Z" fill="url(#paint6_linear_3152_14729)"></path><path d="M38.7139 40.6958V28.1242H41.6053L41.8868 29.8224C42.2962 29.2141 42.8336 28.7325 43.4989 28.3777C44.1812 28.0059 44.9659 27.82 45.853 27.82C47.8148 27.82 49.2051 28.572 50.0239 30.0758C50.4845 29.3831 51.0986 28.8339 51.8662 28.4283C52.6509 28.0228 53.5039 27.82 54.4251 27.82C56.0798 27.82 57.3507 28.3101 58.2377 29.2901C59.1248 30.2702 59.5683 31.7064 59.5683 33.5989V40.6958H56.293V33.9031C56.293 32.8217 56.0798 31.9937 55.6533 31.4192C55.2439 30.8447 54.6042 30.5574 53.7342 30.5574C52.8471 30.5574 52.1307 30.8785 51.5848 31.5206C51.0559 32.1627 50.7915 33.0582 50.7915 34.2073V40.6958H47.5162V33.9031C47.5162 32.8217 47.303 31.9937 46.8765 31.4192C46.4501 30.8447 45.7933 30.5574 44.9062 30.5574C44.0362 30.5574 43.3283 30.8785 42.7824 31.5206C42.2536 32.1627 41.9892 33.0582 41.9892 34.2073V40.6958H38.7139Z" fill="url(#paint7_linear_3152_14729)"></path><path d="M67.5652 41C66.2858 41 65.1514 40.7296 64.162 40.1889C63.1726 39.6482 62.3964 38.8878 61.8335 37.9078C61.2705 36.9277 60.9891 35.7956 60.9891 34.5114C60.9891 33.2103 61.262 32.0528 61.8079 31.039C62.3708 30.0251 63.1385 29.2394 64.1108 28.6818C65.1002 28.1073 66.2602 27.82 67.5908 27.82C68.8361 27.82 69.9364 28.0904 70.8917 28.6311C71.847 29.1718 72.5891 29.9153 73.1179 30.8616C73.6638 31.7909 73.9367 32.8301 73.9367 33.9791C73.9367 34.165 73.9282 34.3593 73.9111 34.5621C73.9111 34.7649 73.9026 34.9761 73.8856 35.1958H64.2388C64.307 36.1758 64.6482 36.9446 65.2623 37.5022C65.8935 38.0599 66.6526 38.3387 67.5397 38.3387C68.205 38.3387 68.7594 38.195 69.2029 37.9078C69.6635 37.6036 70.0047 37.215 70.2264 36.7419H73.5529C73.3141 37.536 72.9132 38.2626 72.3503 38.9216C71.8044 39.5637 71.122 40.0706 70.3032 40.4424C69.5014 40.8141 68.5888 41 67.5652 41ZM67.5908 30.456C66.7891 30.456 66.0811 30.6841 65.467 31.1404C64.8529 31.5797 64.4605 32.2556 64.29 33.1681H70.6103C70.5591 32.3401 70.252 31.6811 69.6891 31.1911C69.1261 30.701 68.4267 30.456 67.5908 30.456Z" fill="url(#paint8_linear_3152_14729)"></path><path d="M76.8194 40.8733C76.2224 40.8733 75.7276 40.6874 75.3353 40.3157C74.96 39.9439 74.7723 39.4961 74.7723 38.9723C74.7723 38.4316 74.96 37.9754 75.3353 37.6036C75.7276 37.2319 76.2224 37.046 76.8194 37.046C77.4165 37.046 77.9026 37.2319 78.2779 37.6036C78.6703 37.9754 78.8665 38.4316 78.8665 38.9723C78.8665 39.4961 78.6703 39.9439 78.2779 40.3157C77.9026 40.6874 77.4165 40.8733 76.8194 40.8733Z" fill="url(#paint9_linear_3152_14729)"></path><path d="M7.01119 19.5533C5.78295 19.5533 4.67413 19.2745 3.68471 18.7169C2.71236 18.1593 1.93618 17.3905 1.35618 16.4104C0.793237 15.4135 0.511766 14.2644 0.511766 12.9633C0.511766 11.6622 0.801766 10.5217 1.38177 9.54163C1.96177 8.54468 2.73795 7.7674 3.7103 7.20979C4.69971 6.65217 5.80854 6.37337 7.03678 6.37337C8.24796 6.37337 9.33972 6.65217 10.3121 7.20979C11.3015 7.7674 12.0777 8.54468 12.6406 9.54163C13.2206 10.5217 13.5106 11.6622 13.5106 12.9633C13.5106 14.2644 13.2206 15.4135 12.6406 16.4104C12.0777 17.3905 11.3015 18.1593 10.3121 18.7169C9.32266 19.2745 8.22237 19.5533 7.01119 19.5533ZM7.01119 16.7399C7.86413 16.7399 8.60619 16.4273 9.23737 15.8021C9.86855 15.16 10.1841 14.2138 10.1841 12.9633C10.1841 11.7129 9.86855 10.7751 9.23737 10.1499C8.60619 9.50783 7.87266 9.18678 7.03678 9.18678C6.16678 9.18678 5.41619 9.50783 4.78501 10.1499C4.17089 10.7751 3.86383 11.7129 3.86383 12.9633C3.86383 14.2138 4.17089 15.16 4.78501 15.8021C5.41619 16.4273 6.15825 16.7399 7.01119 16.7399Z" stroke="url(#paint10_linear_3152_14729)" stroke-width="0.8" mask="url(#path-1-outside-1_3152_14729)"></path><path d="M15.1597 19.2492V1H18.435V8.60382C18.8614 7.91103 19.4329 7.37031 20.1494 6.98167C20.8829 6.57614 21.7188 6.37337 22.657 6.37337C24.2264 6.37337 25.4376 6.86339 26.2906 7.84344C27.1606 8.82349 27.5956 10.2598 27.5956 12.1523V19.2492H24.3458V12.4564C24.3458 11.375 24.1241 10.547 23.6806 9.97251C23.2541 9.398 22.5717 9.11074 21.6335 9.11074C20.7123 9.11074 19.9447 9.43179 19.3305 10.0739C18.7335 10.716 18.435 11.6116 18.435 12.7606V19.2492H15.1597Z" stroke="url(#paint11_linear_3152_14729)" stroke-width="0.8" mask="url(#path-1-outside-1_3152_14729)"></path><path d="M31.2137 4.72587C30.6166 4.72587 30.1219 4.54845 29.7296 4.1936C29.3543 3.83876 29.1666 3.39098 29.1666 2.85026C29.1666 2.30955 29.3543 1.87021 29.7296 1.53227C30.1219 1.17742 30.6166 1 31.2137 1C31.8108 1 32.2969 1.17742 32.6722 1.53227C33.0646 1.87021 33.2608 2.30955 33.2608 2.85026C33.2608 3.39098 33.0646 3.83876 32.6722 4.1936C32.2969 4.54845 31.8108 4.72587 31.2137 4.72587ZM29.5761 19.2492V6.67752H32.8513V19.2492H29.5761Z" stroke="url(#paint12_linear_3152_14729)" stroke-width="0.8" mask="url(#path-1-outside-1_3152_14729)"></path><path d="M41.0806 19.5533C39.8523 19.5533 38.7435 19.2745 37.7541 18.7169C36.7817 18.1593 36.0056 17.3905 35.4256 16.4104C34.8626 15.4135 34.5812 14.2644 34.5812 12.9633C34.5812 11.6622 34.8712 10.5217 35.4512 9.54163C36.0312 8.54468 36.8073 7.7674 37.7797 7.20979C38.7691 6.65217 39.8779 6.37337 41.1062 6.37337C42.3173 6.37337 43.4091 6.65217 44.3815 7.20979C45.3709 7.7674 46.1471 8.54468 46.71 9.54163C47.29 10.5217 47.58 11.6622 47.58 12.9633C47.58 14.2644 47.29 15.4135 46.71 16.4104C46.1471 17.3905 45.3709 18.1593 44.3815 18.7169C43.3921 19.2745 42.2918 19.5533 41.0806 19.5533ZM41.0806 16.7399C41.9335 16.7399 42.6756 16.4273 43.3068 15.8021C43.9379 15.16 44.2535 14.2138 44.2535 12.9633C44.2535 11.7129 43.9379 10.7751 43.3068 10.1499C42.6756 9.50783 41.942 9.18678 41.1062 9.18678C40.2362 9.18678 39.4856 9.50783 38.8544 10.1499C38.2403 10.7751 37.9332 11.7129 37.9332 12.9633C37.9332 14.2138 38.2403 15.16 38.8544 15.8021C39.4856 16.4273 40.2276 16.7399 41.0806 16.7399Z" stroke="url(#paint13_linear_3152_14729)" stroke-width="0.8" mask="url(#path-1-outside-1_3152_14729)"></path><path d="M6.57619 40.6958C5.2456 40.6958 4.17942 40.3748 3.37765 39.7327C2.57589 39.0906 2.175 37.95 2.175 36.311V30.8362H0V28.1242H2.175L2.55883 24.7532H5.4503V28.1242H8.87913V30.8362H5.4503V36.3363C5.4503 36.9446 5.57824 37.3671 5.83413 37.6036C6.10707 37.8233 6.56766 37.9331 7.21589 37.9331H8.80237V40.6958H6.57619Z" stroke="url(#paint14_linear_3152_14729)" stroke-width="0.8" mask="url(#path-1-outside-1_3152_14729)"></path><path d="M10.4118 40.6958V22.4467H13.6871V30.0505C14.1136 29.3577 14.6851 28.817 15.4015 28.4283C16.1351 28.0228 16.971 27.82 17.9092 27.82C19.4786 27.82 20.6898 28.3101 21.5427 29.2901C22.4127 30.2702 22.8477 31.7064 22.8477 33.5989V40.6958H19.598V33.9031C19.598 32.8217 19.3763 31.9937 18.9327 31.4192C18.5063 30.8447 17.8239 30.5574 16.8857 30.5574C15.9645 30.5574 15.1968 30.8785 14.5827 31.5206C13.9857 32.1627 13.6871 33.0582 13.6871 34.2073V40.6958H10.4118Z" stroke="url(#paint15_linear_3152_14729)" stroke-width="0.8" mask="url(#path-1-outside-1_3152_14729)"></path><path d="M30.8671 41C29.5876 41 28.4532 40.7296 27.4638 40.1889C26.4744 39.6482 25.6982 38.8878 25.1353 37.9078C24.5723 36.9277 24.2909 35.7956 24.2909 34.5114C24.2909 33.2103 24.5638 32.0528 25.1097 31.039C25.6726 30.0251 26.4403 29.2394 27.4126 28.6818C28.4021 28.1073 29.5621 27.82 30.8926 27.82C32.1379 27.82 33.2382 28.0904 34.1935 28.6311C35.1488 29.1718 35.8909 29.9153 36.4197 30.8616C36.9656 31.7909 37.2385 32.8301 37.2385 33.9791C37.2385 34.165 37.23 34.3593 37.213 34.5621C37.213 34.7649 37.2044 34.9761 37.1874 35.1958H27.5406C27.6088 36.1758 27.95 36.9446 28.5641 37.5022C29.1953 38.0599 29.9544 38.3387 30.8415 38.3387C31.5068 38.3387 32.0612 38.195 32.5047 37.9078C32.9653 37.6036 33.3065 37.215 33.5282 36.7419H36.8547C36.6159 37.536 36.215 38.2626 35.6521 38.9216C35.1062 39.5637 34.4238 40.0706 33.605 40.4424C32.8032 40.8141 31.8906 41 30.8671 41ZM30.8926 30.456C30.0909 30.456 29.3829 30.6841 28.7688 31.1404C28.1547 31.5797 27.7623 32.2556 27.5918 33.1681H33.9121C33.8609 32.3401 33.5538 31.6811 32.9909 31.1911C32.4279 30.701 31.7285 30.456 30.8926 30.456Z" stroke="url(#paint16_linear_3152_14729)" stroke-width="0.8" mask="url(#path-1-outside-1_3152_14729)"></path><path d="M38.7139 40.6958V28.1242H41.6053L41.8868 29.8224C42.2962 29.2141 42.8336 28.7325 43.4989 28.3777C44.1812 28.0059 44.9659 27.82 45.853 27.82C47.8148 27.82 49.2051 28.572 50.0239 30.0758C50.4845 29.3831 51.0986 28.8339 51.8662 28.4283C52.6509 28.0228 53.5039 27.82 54.4251 27.82C56.0798 27.82 57.3507 28.3101 58.2377 29.2901C59.1248 30.2702 59.5683 31.7064 59.5683 33.5989V40.6958H56.293V33.9031C56.293 32.8217 56.0798 31.9937 55.6533 31.4192C55.2439 30.8447 54.6042 30.5574 53.7342 30.5574C52.8471 30.5574 52.1307 30.8785 51.5848 31.5206C51.0559 32.1627 50.7915 33.0582 50.7915 34.2073V40.6958H47.5162V33.9031C47.5162 32.8217 47.303 31.9937 46.8765 31.4192C46.4501 30.8447 45.7933 30.5574 44.9062 30.5574C44.0362 30.5574 43.3283 30.8785 42.7824 31.5206C42.2536 32.1627 41.9892 33.0582 41.9892 34.2073V40.6958H38.7139Z" stroke="url(#paint17_linear_3152_14729)" stroke-width="0.8" mask="url(#path-1-outside-1_3152_14729)"></path><path d="M67.5652 41C66.2858 41 65.1514 40.7296 64.162 40.1889C63.1726 39.6482 62.3964 38.8878 61.8335 37.9078C61.2705 36.9277 60.9891 35.7956 60.9891 34.5114C60.9891 33.2103 61.262 32.0528 61.8079 31.039C62.3708 30.0251 63.1385 29.2394 64.1108 28.6818C65.1002 28.1073 66.2602 27.82 67.5908 27.82C68.8361 27.82 69.9364 28.0904 70.8917 28.6311C71.847 29.1718 72.5891 29.9153 73.1179 30.8616C73.6638 31.7909 73.9367 32.8301 73.9367 33.9791C73.9367 34.165 73.9282 34.3593 73.9111 34.5621C73.9111 34.7649 73.9026 34.9761 73.8856 35.1958H64.2388C64.307 36.1758 64.6482 36.9446 65.2623 37.5022C65.8935 38.0599 66.6526 38.3387 67.5397 38.3387C68.205 38.3387 68.7594 38.195 69.2029 37.9078C69.6635 37.6036 70.0047 37.215 70.2264 36.7419H73.5529C73.3141 37.536 72.9132 38.2626 72.3503 38.9216C71.8044 39.5637 71.122 40.0706 70.3032 40.4424C69.5014 40.8141 68.5888 41 67.5652 41ZM67.5908 30.456C66.7891 30.456 66.0811 30.6841 65.467 31.1404C64.8529 31.5797 64.4605 32.2556 64.29 33.1681H70.6103C70.5591 32.3401 70.252 31.6811 69.6891 31.1911C69.1261 30.701 68.4267 30.456 67.5908 30.456Z" stroke="url(#paint18_linear_3152_14729)" stroke-width="0.8" mask="url(#path-1-outside-1_3152_14729)"></path><path d="M76.8194 40.8733C76.2224 40.8733 75.7276 40.6874 75.3353 40.3157C74.96 39.9439 74.7723 39.4961 74.7723 38.9723C74.7723 38.4316 74.96 37.9754 75.3353 37.6036C75.7276 37.2319 76.2224 37.046 76.8194 37.046C77.4165 37.046 77.9026 37.2319 78.2779 37.6036C78.6703 37.9754 78.8665 38.4316 78.8665 38.9723C78.8665 39.4961 78.6703 39.9439 78.2779 40.3157C77.9026 40.6874 77.4165 40.8733 76.8194 40.8733Z" stroke="url(#paint19_linear_3152_14729)" stroke-width="0.8" mask="url(#path-1-outside-1_3152_14729)"></path><rect x="53.8086" y="4.75" width="23.5" height="14.5" rx="5.25" stroke="#161519" stroke-width="1.5"></rect><path d="M60.4907 16.1343C58.7344 16.1343 57.585 15.2104 57.4775 13.873L57.4722 13.8032H59.019L59.0298 13.8623C59.0996 14.4155 59.6475 14.8291 60.4854 14.8291C61.3179 14.8291 61.855 14.3833 61.855 13.7495V13.7388C61.855 12.9976 61.3018 12.5894 60.3672 12.5894H59.481V11.4346H60.3457C61.1567 11.4346 61.6831 11.0049 61.6831 10.3765V10.3657C61.6831 9.7373 61.2373 9.36133 60.4746 9.36133C59.7173 9.36133 59.2017 9.75342 59.1372 10.355L59.1318 10.4033H57.644L57.6494 10.3389C57.7568 8.99609 58.8472 8.11523 60.4746 8.11523C62.145 8.11523 63.2192 8.93164 63.2192 10.1509V10.1616C63.2192 11.1284 62.5103 11.7568 61.6025 11.9448V11.9771C62.752 12.0845 63.5039 12.7505 63.5039 13.8032V13.814C63.5039 15.1997 62.3008 16.1343 60.4907 16.1343ZM65.118 16.0913C64.6293 16.0913 64.2479 15.7046 64.2479 15.2212C64.2479 14.7324 64.6293 14.3511 65.118 14.3511C65.6014 14.3511 65.9881 14.7324 65.9881 15.2212C65.9881 15.7046 65.6014 16.0913 65.118 16.0913ZM70.6853 16V14.5767H66.8288V13.2231L69.9387 8.24951H72.2268V13.2822H73.2473V14.5767H72.2268V16H70.6853ZM68.2414 13.3252H70.7175V9.42041H70.6799L68.2414 13.2822V13.3252Z" fill="#161519"></path></g><defs><linearGradient id="paint0_linear_3152_14729" x1="0" y1="41" x2="78.7332" y2="41" gradientUnits="userSpaceOnUse"><stop stop-color="#0F0F19"></stop><stop offset="1" stop-color="#303050"></stop></linearGradient><linearGradient id="paint1_linear_3152_14729" x1="0" y1="41" x2="78.7332" y2="41" gradientUnits="userSpaceOnUse"><stop stop-color="#0F0F19"></stop><stop offset="1" stop-color="#303050"></stop></linearGradient><linearGradient id="paint2_linear_3152_14729" x1="0" y1="41" x2="78.7332" y2="41" gradientUnits="userSpaceOnUse"><stop stop-color="#0F0F19"></stop><stop offset="1" stop-color="#303050"></stop></linearGradient><linearGradient id="paint3_linear_3152_14729" x1="0" y1="41" x2="78.7332" y2="41" gradientUnits="userSpaceOnUse"><stop stop-color="#0F0F19"></stop><stop offset="1" stop-color="#303050"></stop></linearGradient><linearGradient id="paint4_linear_3152_14729" x1="0" y1="41" x2="78.7332" y2="41" gradientUnits="userSpaceOnUse"><stop stop-color="#0F0F19"></stop><stop offset="1" stop-color="#303050"></stop></linearGradient><linearGradient id="paint5_linear_3152_14729" x1="0" y1="41" x2="78.7332" y2="41" gradientUnits="userSpaceOnUse"><stop stop-color="#0F0F19"></stop><stop offset="1" stop-color="#303050"></stop></linearGradient><linearGradient id="paint6_linear_3152_14729" x1="0" y1="41" x2="78.7332" y2="41" gradientUnits="userSpaceOnUse"><stop stop-color="#0F0F19"></stop><stop offset="1" stop-color="#303050"></stop></linearGradient><linearGradient id="paint7_linear_3152_14729" x1="0" y1="41" x2="78.7332" y2="41" gradientUnits="userSpaceOnUse"><stop stop-color="#0F0F19"></stop><stop offset="1" stop-color="#303050"></stop></linearGradient><linearGradient id="paint8_linear_3152_14729" x1="0" y1="41" x2="78.7332" y2="41" gradientUnits="userSpaceOnUse"><stop stop-color="#0F0F19"></stop><stop offset="1" stop-color="#303050"></stop></linearGradient><linearGradient id="paint9_linear_3152_14729" x1="0" y1="41" x2="78.7332" y2="41" gradientUnits="userSpaceOnUse"><stop stop-color="#0F0F19"></stop><stop offset="1" stop-color="#303050"></stop></linearGradient><linearGradient id="paint10_linear_3152_14729" x1="1.25607e-09" y1="40.9688" x2="78.7332" y2="40.9688" gradientUnits="userSpaceOnUse"><stop stop-color="#0F0F19"></stop><stop offset="1" stop-color="#303050"></stop></linearGradient><linearGradient id="paint11_linear_3152_14729" x1="1.25607e-09" y1="40.9688" x2="78.7332" y2="40.9688" gradientUnits="userSpaceOnUse"><stop stop-color="#0F0F19"></stop><stop offset="1" stop-color="#303050"></stop></linearGradient><linearGradient id="paint12_linear_3152_14729" x1="1.25607e-09" y1="40.9688" x2="78.7332" y2="40.9688" gradientUnits="userSpaceOnUse"><stop stop-color="#0F0F19"></stop><stop offset="1" stop-color="#303050"></stop></linearGradient><linearGradient id="paint13_linear_3152_14729" x1="1.25607e-09" y1="40.9688" x2="78.7332" y2="40.9688" gradientUnits="userSpaceOnUse"><stop stop-color="#0F0F19"></stop><stop offset="1" stop-color="#303050"></stop></linearGradient><linearGradient id="paint14_linear_3152_14729" x1="1.25607e-09" y1="40.9688" x2="78.7332" y2="40.9688" gradientUnits="userSpaceOnUse"><stop stop-color="#0F0F19"></stop><stop offset="1" stop-color="#303050"></stop></linearGradient><linearGradient id="paint15_linear_3152_14729" x1="1.25607e-09" y1="40.9688" x2="78.7332" y2="40.9688" gradientUnits="userSpaceOnUse"><stop stop-color="#0F0F19"></stop><stop offset="1" stop-color="#303050"></stop></linearGradient><linearGradient id="paint16_linear_3152_14729" x1="1.25607e-09" y1="40.9688" x2="78.7332" y2="40.9688" gradientUnits="userSpaceOnUse"><stop stop-color="#0F0F19"></stop><stop offset="1" stop-color="#303050"></stop></linearGradient><linearGradient id="paint17_linear_3152_14729" x1="1.25607e-09" y1="40.9688" x2="78.7332" y2="40.9688" gradientUnits="userSpaceOnUse"><stop stop-color="#0F0F19"></stop><stop offset="1" stop-color="#303050"></stop></linearGradient><linearGradient id="paint18_linear_3152_14729" x1="1.25607e-09" y1="40.9688" x2="78.7332" y2="40.9688" gradientUnits="userSpaceOnUse"><stop stop-color="#0F0F19"></stop><stop offset="1" stop-color="#303050"></stop></linearGradient><linearGradient id="paint19_linear_3152_14729" x1="1.25607e-09" y1="40.9688" x2="78.7332" y2="40.9688" gradientUnits="userSpaceOnUse"><stop stop-color="#0F0F19"></stop><stop offset="1" stop-color="#303050"></stop></linearGradient><clipPath id="clip0_3152_14729"><rect width="80" height="42" fill="white"></rect></clipPath></defs></svg> 