<svg width="78" height="18" viewBox="0 0 78 18" fill="none" xmlns="http://www.w3.org/2000/svg">
<g clip-path="url(#clip0_1405_13836)">
<path d="M20.6529 3.52145C23.3504 3.52145 25.9867 5.11191 25.9867 8.65493C25.9867 8.93618 25.9712 9.37211 25.9403 9.67867C25.9332 9.74898 25.8735 9.80242 25.8025 9.80242H18.2367C18.4582 11.0708 19.3439 11.8963 20.7324 11.8963C21.6533 11.8963 22.241 11.3872 22.5609 10.7783C22.601 10.7017 22.6881 10.6616 22.7725 10.6799L25.6014 11.2965C25.6879 11.3155 25.7336 11.4083 25.6984 11.4892C25.0369 12.9875 23.5325 14.4725 20.7127 14.4725C17.0093 14.4725 15.0366 12.0566 15.0366 8.99665C15.0366 5.93666 17.0894 3.52075 20.6522 3.52075L20.6529 3.52145ZM22.8266 7.87025C22.686 6.66228 21.8804 6.01823 20.7134 6.01823C19.1837 6.01823 18.5397 6.80361 18.2979 7.87025H22.8266Z" fill="#FFF5ED"/>
<path d="M26.9529 14.0125V3.98251C26.9529 3.90587 27.0147 3.844 27.0914 3.844H30.0349C30.1115 3.844 30.1734 3.90587 30.1734 3.98251V5.1729C30.8778 4.06549 31.9245 3.52197 33.2729 3.52197C35.2456 3.52197 36.9363 4.87055 36.9363 7.89046V14.0125C36.9363 14.0891 36.8744 14.151 36.7978 14.151H33.8543C33.7777 14.151 33.7158 14.0891 33.7158 14.0125V8.35311C33.7158 7.00453 33.0114 6.25922 31.985 6.25922C30.8778 6.25922 30.1734 6.98414 30.1734 8.63506V14.0125C30.1734 14.0891 30.1115 14.151 30.0349 14.151H27.0914C27.0147 14.151 26.9529 14.0891 26.9529 14.0125Z" fill="#FFF5ED"/>
<path d="M37.1339 3.84375H40.2559C40.3171 3.84375 40.3705 3.88383 40.3888 3.94219L42.734 11.7152L45.0793 3.94219C45.0968 3.88383 45.151 3.84375 45.2121 3.84375H48.3342C48.4298 3.84375 48.4973 3.93867 48.4642 4.02937L44.8733 14.0228C44.8459 14.0994 44.7728 14.1515 44.6905 14.1515H40.7769C40.6953 14.1515 40.6222 14.1001 40.5941 14.0228L37.0031 4.02937C36.9708 3.93937 37.0376 3.84375 37.1332 3.84375H37.1339Z" fill="#FFF5ED"/>
<path d="M55.2945 14.0125V12.4396C54.7912 13.4866 53.6642 14.473 51.9131 14.473C49.88 14.473 48.3706 13.1849 48.3706 11.373C48.3706 9.46052 49.6388 8.03108 52.4164 8.03108H54.027C54.9128 8.03108 55.1539 7.38702 55.0738 6.96444C54.9529 6.23953 54.3089 5.85703 53.4034 5.85703C52.2596 5.85703 51.5672 6.48914 51.48 7.3596C51.4723 7.43906 51.3992 7.49601 51.3204 7.48265L48.5899 7.02773C48.514 7.01508 48.462 6.94264 48.4761 6.86741C48.9211 4.49157 51.1735 3.52197 53.485 3.52197C55.7965 3.52197 58.3561 4.08587 58.3561 8.35381V14.0132C58.3561 14.0898 58.2943 14.1517 58.2176 14.1517H55.4351C55.3585 14.1517 55.2966 14.0898 55.2966 14.0132L55.2945 14.0125ZM52.8593 12.138C54.1472 12.138 55.033 11.1719 55.1335 9.96395H53.1813C51.9939 9.96395 51.5707 10.447 51.5911 11.1114C51.6115 11.816 52.1746 12.138 52.8593 12.138Z" fill="#FFF5ED"/>
<path d="M58.8375 6.28195V3.98205C58.8375 3.90541 58.8994 3.84353 58.976 3.84353H60.1254C60.659 3.84353 61.0914 3.41112 61.0914 2.87745V1.08309C61.0914 1.00645 61.1532 0.94458 61.2299 0.94458H63.8514C63.928 0.94458 63.9899 1.00645 63.9899 1.08309V3.84353H66.106C66.1826 3.84353 66.2444 3.90541 66.2444 3.98205V6.28195C66.2444 6.35859 66.1826 6.42046 66.106 6.42046H63.9899V10.1449C63.9899 11.3585 65.0212 11.8528 66.0982 11.4703C66.1699 11.445 66.2444 11.4991 66.2444 11.5743V14.0008C66.2444 14.0901 66.184 14.1688 66.0975 14.1892C65.8192 14.2553 65.4331 14.3123 64.9769 14.3123C62.4812 14.3123 60.7701 13.4664 60.7701 9.84325V6.42116H58.976C58.8994 6.42116 58.8375 6.35929 58.8375 6.28265V6.28195Z" fill="#FFF5ED"/>
<path d="M78 8.99714C78 12.017 75.8663 14.473 72.364 14.473C68.8617 14.473 66.728 12.017 66.728 8.99714C66.728 5.97723 68.8617 3.52124 72.364 3.52124C75.8663 3.52124 78 5.97723 78 8.99714ZM74.7795 8.99714C74.7795 7.50723 73.9542 6.25918 72.364 6.25918C70.7738 6.25918 69.9485 7.50723 69.9485 8.99714C69.9485 10.487 70.7738 11.7351 72.364 11.7351C73.9542 11.7351 74.7795 10.487 74.7795 8.99714Z" fill="#FFF5ED"/>
<path d="M7.18679 18C7.6313 18 7.99174 17.6395 7.99174 17.195C7.99174 16.7503 7.6313 16.3899 7.18679 16.3899C6.74222 16.3899 6.38184 16.7503 6.38184 17.195C6.38184 17.6395 6.74222 18 7.18679 18Z" fill="#87E64B"/>
<path d="M11.8106 11.7127L7.27549 12.1986C7.19254 12.2077 7.14965 12.1015 7.21574 12.0502L11.6538 8.59438C11.9421 8.35884 12.1255 7.99181 12.0468 7.59877C11.9681 6.99619 11.4703 6.60314 10.8418 6.68189L6.01991 7.38783C5.93484 7.40049 5.88915 7.2915 5.95734 7.23947L10.7371 3.58958C11.6805 2.85623 11.7586 1.41483 10.8946 0.576718C10.1086 -0.209368 8.85093 -0.183352 8.06497 0.602734L0.362807 8.43688C0.0745743 8.75118 -0.0561846 9.17023 0.0225522 9.61601C0.153312 10.3233 0.860537 10.7951 1.56847 10.6644L5.72043 9.8171C5.81041 9.79882 5.85962 9.91905 5.78159 9.96827L1.17478 12.9171C0.598315 13.2842 0.336797 13.9388 0.519579 14.5941C0.703063 15.4589 1.56776 15.9567 2.40575 15.7472L9.29172 14.0506C9.36905 14.0316 9.42599 14.1216 9.37608 14.1835L8.30048 15.511C8.01224 15.878 8.48396 16.3758 8.87694 16.0875L12.4138 13.1794C13.0423 12.6556 12.6233 11.6333 11.8113 11.712L11.8106 11.7127Z" fill="#87E64B"/>
</g>
<defs>
<clipPath id="clip0_1405_13836">
<rect width="78" height="18" fill="white"/>
</clipPath>
</defs>
</svg>
